<svg xmlns="http://www.w3.org/2000/svg" width="980" height="520" viewBox="0 0 980 520" role="img" aria-labelledby="title desc">
<title>Text2SQL Eval Summary</title>
<desc>Stacked bar chart of recent Text2SQL positive and negative eval runs.</desc>
<rect width="980" height="520" fill="#f8fafc"/>
<text x="40" y="38" font-family="Arial, sans-serif" font-size="22" font-weight="700" fill="#111827">Text2SQL Eval Summary</text>
<text x="40" y="60" font-family="Arial, sans-serif" font-size="13" fill="#4b5563">Recent positive and negative eval records from metrics/run_results.jsonl</text>
<line x1="72" y1="424.0" x2="948" y2="424.0" stroke="#e5e7eb"/>
<text x="60" y="428.0" text-anchor="end" font-family="Arial, sans-serif" font-size="11" fill="#6b7280">0</text>
<line x1="72" y1="336.0" x2="948" y2="336.0" stroke="#e5e7eb"/>
<text x="60" y="340.0" text-anchor="end" font-family="Arial, sans-serif" font-size="11" fill="#6b7280">6</text>
<line x1="72" y1="248.0" x2="948" y2="248.0" stroke="#e5e7eb"/>
<text x="60" y="252.0" text-anchor="end" font-family="Arial, sans-serif" font-size="11" fill="#6b7280">12</text>
<line x1="72" y1="160.0" x2="948" y2="160.0" stroke="#e5e7eb"/>
<text x="60" y="164.0" text-anchor="end" font-family="Arial, sans-serif" font-size="11" fill="#6b7280">18</text>
<line x1="72" y1="72.0" x2="948" y2="72.0" stroke="#e5e7eb"/>
<text x="60" y="76.0" text-anchor="end" font-family="Arial, sans-serif" font-size="11" fill="#6b7280">24</text>
<line x1="72" y1="72" x2="72" y2="424" stroke="#9ca3af"/>
<line x1="72" y1="424" x2="948" y2="424" stroke="#9ca3af"/>
<rect x="590" y="28" width="12" height="12" fill="#16a34a"/>
<text x="608" y="39" font-family="Arial, sans-serif" font-size="12" fill="#374151">passed</text>
<rect x="682" y="28" width="12" height="12" fill="#f59e0b"/>
<text x="700" y="39" font-family="Arial, sans-serif" font-size="12" fill="#374151">refused</text>
<rect x="774" y="28" width="12" height="12" fill="#ef4444"/>
<text x="792" y="39" font-family="Arial, sans-serif" font-size="12" fill="#374151">blocked</text>
<rect x="866" y="28" width="12" height="12" fill="#7c3aed"/>
<text x="884" y="39" font-family="Arial, sans-serif" font-size="12" fill="#374151">failed</text>
<rect x="102.6" y="394.7" width="64.0" height="29.3" fill="#16a34a"><title>passed: 2</title></rect>
<rect x="102.6" y="160.0" width="64.0" height="234.7" fill="#f59e0b"><title>refused: 16</title></rect>
<text x="134.6" y="442.0" text-anchor="middle" font-family="Arial, sans-serif" font-size="11" fill="#374151">v2_mock</text>
<text x="134.6" y="457.0" text-anchor="middle" font-family="Arial, sans-serif" font-size="10" fill="#6b7280">v2_mock</text>
<rect x="227.7" y="306.7" width="64.0" height="117.3" fill="#16a34a"><title>passed: 8</title></rect>
<rect x="227.7" y="160.0" width="64.0" height="146.7" fill="#f59e0b"><title>refused: 10</title></rect>
<text x="259.7" y="442.0" text-anchor="middle" font-family="Arial, sans-serif" font-size="11" fill="#374151">v2_mock</text>
<text x="259.7" y="457.0" text-anchor="middle" font-family="Arial, sans-serif" font-size="10" fill="#6b7280">v2_mock</text>
<rect x="352.9" y="306.7" width="64.0" height="117.3" fill="#16a34a"><title>passed: 8</title></rect>
<rect x="352.9" y="160.0" width="64.0" height="146.7" fill="#f59e0b"><title>refused: 10</title></rect>
<text x="384.9" y="442.0" text-anchor="middle" font-family="Arial, sans-serif" font-size="11" fill="#374151">v2_mock</text>
<text x="384.9" y="457.0" text-anchor="middle" font-family="Arial, sans-serif" font-size="10" fill="#6b7280">v2_mock</text>
<rect x="478.0" y="248.0" width="64.0" height="176.0" fill="#16a34a"><title>passed: 12</title></rect>
<rect x="478.0" y="174.7" width="64.0" height="73.3" fill="#f59e0b"><title>refused: 5</title></rect>
<rect x="478.0" y="160.0" width="64.0" height="14.7" fill="#ef4444"><title>blocked: 1</title></rect>
<text x="510.0" y="442.0" text-anchor="middle" font-family="Arial, sans-serif" font-size="11" fill="#374151">v2_mock</text>
<text x="510.0" y="457.0" text-anchor="middle" font-family="Arial, sans-serif" font-size="10" fill="#6b7280">v2_mock</text>
<rect x="603.1" y="233.3" width="64.0" height="190.7" fill="#16a34a"><title>passed: 13</title></rect>
<rect x="603.1" y="160.0" width="64.0" height="73.3" fill="#f59e0b"><title>refused: 5</title></rect>
<text x="635.1" y="442.0" text-anchor="middle" font-family="Arial, sans-serif" font-size="11" fill="#374151">v2_mock</text>
<text x="635.1" y="457.0" text-anchor="middle" font-family="Arial, sans-serif" font-size="10" fill="#6b7280">v2_mock</text>
<rect x="728.3" y="233.3" width="64.0" height="190.7" fill="#16a34a"><title>passed: 13</title></rect>
<rect x="728.3" y="72.0" width="64.0" height="161.3" fill="#f59e0b"><title>refused: 11</title></rect>
<text x="760.3" y="442.0" text-anchor="middle" font-family="Arial, sans-serif" font-size="11" fill="#374151">v2</text>
<text x="760.3" y="457.0" text-anchor="middle" font-family="Arial, sans-serif" font-size="10" fill="#6b7280">score 88.54</text>
<rect x="853.4" y="306.7" width="64.0" height="117.3" fill="#f59e0b"><title>refused: 8</title></rect>
<text x="885.4" y="442.0" text-anchor="middle" font-family="Arial, sans-serif" font-size="11" fill="#374151">negative</text>
<text x="885.4" y="457.0" text-anchor="middle" font-family="Arial, sans-serif" font-size="10" fill="#6b7280">neg 1.0</text>
</svg>