<svg xmlns="http://www.w3.org/2000/svg" width="980" height="520" viewBox="0 0 980 520" role="img" aria-labelledby="title desc">
<title>Text2SQL Eval Summary</title>
<desc>Stacked bar chart of recent Text2SQL positive and negative eval runs.</desc>
<rect width="980" height="520" fill="#f8fafc"/>
<text x="40" y="38" font-family="Arial, sans-serif" font-size="22" font-weight="700" fill="#111827">Text2SQL Eval Summary</text>
<text x="40" y="60" font-family="Arial, sans-serif" font-size="13" fill="#4b5563">Recent positive and negative eval records from metrics/run_results.jsonl</text>
<line x1="72" y1="424.0" x2="948" y2="424.0" stroke="#e5e7eb"/>
<text x="60" y="428.0" text-anchor="end" font-family="Arial, sans-serif" font-size="11" fill="#6b7280">0</text>
<line x1="72" y1="336.0" x2="948" y2="336.0" stroke="#e5e7eb"/>
<text x="60" y="340.0" text-anchor="end" font-family="Arial, sans-serif" font-size="11" fill="#6b7280">6</text>
<line x1="72" y1="248.0" x2="948" y2="248.0" stroke="#e5e7eb"/>
<text x="60" y="252.0" text-anchor="end" font-family="Arial, sans-serif" font-size="11" fill="#6b7280">12</text>
<line x1="72" y1="160.0" x2="948" y2="160.0" stroke="#e5e7eb"/>
<text x="60" y="164.0" text-anchor="end" font-family="Arial, sans-serif" font-size="11" fill="#6b7280">18</text>
<line x1="72" y1="72.0" x2="948" y2="72.0" stroke="#e5e7eb"/>
<text x="60" y="76.0" text-anchor="end" font-family="Arial, sans-serif" font-size="11" fill="#6b7280">24</text>
<line x1="72" y1="72" x2="72" y2="424" stroke="#9ca3af"/>
<line x1="72" y1="424" x2="948" y2="424" stroke="#9ca3af"/>
<rect x="590" y="28" width="12" height="12" fill="#16a34a"/>
<text x="608" y="39" font-family="Arial, sans-serif" font-size="12" fill="#374151">passed</text>
<rect x="682" y="28" width="12" height="12" fill="#f59e0b"/>
<text x="700" y="39" font-family="Arial, sans-serif" font-size="12" fill="#374151">refused</text>
<rect x="774" y="28" width="12" height="12" fill="#ef4444"/>
<text x="792" y="39" font-family="Arial, sans-serif" font-size="12" fill="#374151">blocked</text>
<rect x="866" y="28" width="12" height="12" fill="#7c3aed"/>
<text x="884" y="39" font-family="Arial, sans-serif" font-size="12" fill="#374151">failed</text>
<rect x="96.1" y="306.7" width="61.3" height="117.3" fill="#16a34a"><title>passed: 8</title></rect>
<rect x="96.1" y="72.0" width="61.3" height="234.7" fill="#7c3aed"><title>failed: 16</title></rect>
<text x="126.8" y="442.0" text-anchor="middle" font-family="Arial, sans-serif" font-size="11" fill="#374151">v2</text>
<text x="126.8" y="457.0" text-anchor="middle" font-family="Arial, sans-serif" font-size="10" fill="#6b7280">score 49.52</text>
<rect x="205.6" y="233.3" width="61.3" height="190.7" fill="#f59e0b"><title>refused: 13</title></rect>
<rect x="205.6" y="218.7" width="61.3" height="14.7" fill="#7c3aed"><title>failed: 1</title></rect>
<text x="236.2" y="442.0" text-anchor="middle" font-family="Arial, sans-serif" font-size="11" fill="#374151">negative</text>
<text x="236.2" y="457.0" text-anchor="middle" font-family="Arial, sans-serif" font-size="10" fill="#6b7280">neg 0.9286</text>
<rect x="315.1" y="262.7" width="61.3" height="161.3" fill="#16a34a"><title>passed: 11</title></rect>
<rect x="315.1" y="248.0" width="61.3" height="14.7" fill="#ef4444"><title>blocked: 1</title></rect>
<rect x="315.1" y="72.0" width="61.3" height="176.0" fill="#7c3aed"><title>failed: 12</title></rect>
<text x="345.8" y="442.0" text-anchor="middle" font-family="Arial, sans-serif" font-size="11" fill="#374151">v2</text>
<text x="345.8" y="457.0" text-anchor="middle" font-family="Arial, sans-serif" font-size="10" fill="#6b7280">score 53.91</text>
<rect x="424.6" y="218.7" width="61.3" height="205.3" fill="#f59e0b"><title>refused: 14</title></rect>
<text x="455.2" y="442.0" text-anchor="middle" font-family="Arial, sans-serif" font-size="11" fill="#374151">negative</text>
<text x="455.2" y="457.0" text-anchor="middle" font-family="Arial, sans-serif" font-size="10" fill="#6b7280">neg 1.0</text>
<rect x="534.1" y="248.0" width="61.3" height="176.0" fill="#16a34a"><title>passed: 12</title></rect>
<rect x="534.1" y="218.7" width="61.3" height="29.3" fill="#f59e0b"><title>refused: 2</title></rect>
<rect x="534.1" y="204.0" width="61.3" height="14.7" fill="#ef4444"><title>blocked: 1</title></rect>
<rect x="534.1" y="72.0" width="61.3" height="132.0" fill="#7c3aed"><title>failed: 9</title></rect>
<text x="564.8" y="442.0" text-anchor="middle" font-family="Arial, sans-serif" font-size="11" fill="#374151">v2</text>
<text x="564.8" y="457.0" text-anchor="middle" font-family="Arial, sans-serif" font-size="10" fill="#6b7280">score 66.21</text>
<rect x="643.6" y="233.3" width="61.3" height="190.7" fill="#f59e0b"><title>refused: 13</title></rect>
<rect x="643.6" y="218.7" width="61.3" height="14.7" fill="#7c3aed"><title>failed: 1</title></rect>
<text x="674.2" y="442.0" text-anchor="middle" font-family="Arial, sans-serif" font-size="11" fill="#374151">negative</text>
<text x="674.2" y="457.0" text-anchor="middle" font-family="Arial, sans-serif" font-size="10" fill="#6b7280">neg 0.9286</text>
<rect x="753.1" y="292.0" width="61.3" height="132.0" fill="#16a34a"><title>passed: 9</title></rect>
<rect x="753.1" y="72.0" width="61.3" height="220.0" fill="#7c3aed"><title>failed: 15</title></rect>
<text x="783.8" y="442.0" text-anchor="middle" font-family="Arial, sans-serif" font-size="11" fill="#374151">v2</text>
<text x="783.8" y="457.0" text-anchor="middle" font-family="Arial, sans-serif" font-size="10" fill="#6b7280">score 56.25</text>
<rect x="862.6" y="248.0" width="61.3" height="176.0" fill="#f59e0b"><title>refused: 12</title></rect>
<rect x="862.6" y="218.7" width="61.3" height="29.3" fill="#7c3aed"><title>failed: 2</title></rect>
<text x="893.2" y="442.0" text-anchor="middle" font-family="Arial, sans-serif" font-size="11" fill="#374151">negative</text>
<text x="893.2" y="457.0" text-anchor="middle" font-family="Arial, sans-serif" font-size="10" fill="#6b7280">neg 0.8571</text>
</svg>